<?xml version="1.0" encoding="utf-8"?>
<!-- Generator: Adobe Illustrator 26.4.1, SVG Export Plug-In . SVG Version: 6.00 Build 0)  -->
<svg version="1.1" xmlns="http://www.w3.org/2000/svg" xmlns:xlink="http://www.w3.org/1999/xlink" x="0px" y="0px"
	 viewBox="0 0 580 210" style="enable-background:new 0 0 580 210;" xml:space="preserve">
<style type="text/css">
	.st0{display:none;}
	.st1{display:inline;}
	.st2{fill:#FFFFFF;}
</style>
<g id="圖層_2" class="st0">
	<rect class="st1" width="580" height="210"/>
</g>
<g id="Layer_1">
	<g>
		<path class="st2" d="M569.5,22c0.9-1,1.5-2.1,1.9-3.1c0.4-1,0.6-2.1,0.6-3c0-1.2-0.3-2.3-0.9-3c-0.6-0.8-1.4-1.2-2.3-1.2
			c-0.7,0-1.2,0.2-1.6,0.6c-0.4,0.4-0.8,0.9-1.1,1.5c-0.3,0.6-0.6,1.4-0.8,2.2c-0.2,0.8-0.5,1.6-0.7,2.4c-1,3.1-2.4,5.4-4.2,6.9
			c-1.8,1.5-4,2.2-6.9,2.2c-1.9,0-3.6-0.3-5.2-1c-1.5-0.6-2.9-1.6-4-2.8c-1.1-1.2-1.9-2.7-2.6-4.5c-0.6-1.8-0.9-3.8-0.9-6.1
			c0-4.7,1.4-9,4.2-13l7.8,4.1c-1.3,1.4-2.2,2.9-2.8,4.3c-0.6,1.4-0.9,2.8-0.9,4.2c0,1.6,0.4,2.7,1.1,3.5c0.7,0.8,1.5,1.2,2.5,1.2
			c0.6,0,1-0.1,1.4-0.3c0.4-0.2,0.8-0.5,1.1-1c0.3-0.5,0.7-1.1,1-1.8s0.6-1.6,1-2.7c0.4-1.2,0.8-2.5,1.3-3.7
			c0.5-1.2,1.1-2.3,1.9-3.2c0.8-0.9,1.8-1.7,3-2.3c1.2-0.6,2.7-0.9,4.5-0.9c1.8,0,3.5,0.3,5,0.9c1.5,0.6,2.8,1.5,3.8,2.6
			c1.1,1.1,1.9,2.4,2.5,4c0.6,1.6,0.9,3.4,0.9,5.3c0,1.8-0.3,3.7-0.8,5.7c-0.5,2-1.3,3.9-2.2,5.7L569.5,22z"/>
		<path class="st2" d="M570.8,50.6l-28.9,0V41l28.9,0v-7.9l8.2,0v25.4l-8.2,0V50.6z"/>
		<path class="st2" d="M579,75.4l-20.1,0c-1.1,0-2.2,0-3.3,0.1c-1.1,0.1-2.2,0.3-3.1,0.7c-0.9,0.4-1.7,1.1-2.2,1.9
			c-0.6,0.9-0.9,2.1-0.9,3.7c0,1.6,0.3,2.8,0.9,3.7c0.6,0.9,1.3,1.5,2.2,1.9c0.9,0.4,1.9,0.7,3.1,0.8c1.1,0.1,2.2,0.1,3.3,0.1
			l20.1,0V98l-21.5,0c-5.8,0-10-1.3-12.6-4c-2.7-2.6-4-6.7-4-12.2c0-5.5,1.3-9.5,4-12.2c2.7-2.7,6.9-4,12.6-4l21.5,0V75.4z"/>
		<path class="st2" d="M579,108.8V123c0,2.5-0.5,4.9-1.5,7.1c-1,2.2-2.4,4.1-4.1,5.8c-1.7,1.7-3.7,3-5.9,3.9c-2.2,0.9-4.6,1.4-7,1.4
			c-2.4,0-4.8-0.5-7-1.4s-4.2-2.2-5.9-3.9c-1.7-1.7-3.1-3.6-4.1-5.8c-1-2.2-1.5-4.6-1.5-7.1v-14.2L579,108.8z M550.1,118.4v2.2
			c0,1.7,0.3,3.2,0.8,4.5c0.5,1.3,1.2,2.4,2.2,3.3c0.9,0.9,2,1.6,3.3,2.1c1.3,0.5,2.6,0.7,4.2,0.7c1.5,0,2.8-0.2,4.1-0.7
			c1.3-0.5,2.4-1.2,3.3-2.1c0.9-0.9,1.6-2,2.2-3.3c0.5-1.3,0.8-2.8,0.8-4.4v-2.2L550.1,118.4z"/>
		<path class="st2" d="M579,159.9h-37v-9.6l37,0V159.9z"/>
		<path class="st2" d="M560.4,169c2.8,0,5.3,0.5,7.7,1.5c2.4,1,4.4,2.4,6.2,4.2c1.8,1.8,3.2,4,4.2,6.5c1,2.5,1.5,5.3,1.5,8.3
			c0,3-0.5,5.7-1.5,8.3c-1,2.5-2.4,4.7-4.2,6.5c-1.8,1.8-3.8,3.2-6.2,4.2s-4.9,1.5-7.7,1.5s-5.3-0.5-7.7-1.5s-4.4-2.4-6.2-4.2
			s-3.2-4-4.2-6.5c-1-2.5-1.5-5.3-1.5-8.3c0-3,0.5-5.8,1.5-8.3c1-2.5,2.4-4.7,4.2-6.5c1.8-1.8,3.8-3.2,6.2-4.2
			C555.1,169.5,557.7,169,560.4,169z M560.4,179.1c-1.5,0-2.8,0.3-4.1,0.8c-1.2,0.6-2.3,1.3-3.2,2.3c-0.9,0.9-1.6,2.1-2.1,3.3
			c-0.5,1.3-0.8,2.6-0.8,4c0,1.4,0.3,2.7,0.8,4c0.5,1.3,1.2,2.4,2.1,3.3c0.9,1,2,1.7,3.2,2.3c1.2,0.6,2.6,0.8,4.1,0.8
			s2.8-0.3,4.1-0.8c1.2-0.6,2.3-1.3,3.2-2.3c0.9-1,1.6-2.1,2.1-3.3c0.5-1.3,0.8-2.6,0.8-4s-0.3-2.7-0.8-4c-0.5-1.3-1.2-2.4-2.1-3.3
			c-0.9-1-2-1.7-3.2-2.3C563.3,179.3,561.9,179.1,560.4,179.1z"/>
	</g>
	<g id="XMLID_1_">
		<path id="XMLID_10_" class="st2" d="M193.3,210c-1.5-27.7,9.4-50.2,32.5-64.7c14.3-8.9,31.1-14.2,47.2-20
			c11.8-4.2,13.4-4.8,13.4-17.6c0-29.1,0-58.1,0-87.2c0-11.3-2.5-13.9-14.1-13.8c-17.6,0.1-34.3,3.2-49.1,13.4
			c-4.4,3.1-8,6.9-11.3,9.7c8.7-0.6,17.7-2.9,26-1.5c18.6,3.1,30.4,21.1,27.7,39.4c-2.7,18.8-19.1,31.9-38.4,30.5
			C209.3,97.1,194.9,81.5,195,63c0.1-22.8,10.4-40.7,30.9-50.8c33.5-16.2,67.5-15,100,2.2c19.8,10.4,28.5,28.4,28.3,50.6
			c-0.4,22.3-10,39.7-30.1,49.2c-13.4,6.5-28.1,9.7-42.3,14.4c-12.8,4.2-25.8,7.9-38.6,12.2c-5.1,1.7-9.6,4.6-8,11
			c1.4,6.5,6.6,7,12,7c31.4,0,62.7,0,94.1,0c3,0,6,0,10.6,0c-15.8,18-30.4,34.7-45,51.3C268.9,210,231.2,210,193.3,210z"/>
		<path id="XMLID_13_" class="st2" d="M0,208.3c8.6-18,17.3-36.1,25.8-54c12.2-26,24.2-52.2,36.6-78.5c-2.2-4.9-4.3-9.6-6.9-15.2
			c26.7-7.8,26-35.3,39.5-53.5c5.5,11.7,10.7,23.1,16,34.6c25,54.2,50.2,108.4,75.2,162.7c0.8,1.8,1.3,3.6,1.8,5.6
			c-21.5,0-42.9,0-64.4,0c-6.6-14.9-13.1-29.7-19.7-44.6c-26.2,0-51.5,0-77.6,0c-6.6,14.8-13.1,29.7-19.7,44.6
			C4.5,209.4,2.2,208.9,0,208.3z M65.4,82.4c-12.2,26.3-23.6,51.3-35.6,76.6c24.1,0,47,0,70.9,0C89,133.5,77.6,108.9,65.4,82.4z"/>
		<path id="XMLID_16_" class="st2" d="M435.7,210c0-16.6,0-33.3,0-50.8c-27.4,0-54.3,0-84.1,0C399.6,105.3,446,53.3,493.7,0
			c0,51.7,0,101.7,0,152.3c5.6,0,10.3,0,14.9,0c0,2.2,0,4.5,0,6.9c-4.6,0-9.3,0-15.3,0c0,17.4,0,34.2,0,50.9
			C474.2,210,455,210,435.7,210z M435.2,152.6c0-25.9,0-51.3,0-78.6c-23.8,26.6-46.6,52.2-70.1,78.6
			C389.6,152.6,412.2,152.6,435.2,152.6z"/>
	</g>
</g>
</svg>
